<svg xmlns="http://www.w3.org/2000/svg" width="523" height="66" viewBox="0 0 523 66" fill="#fff" xmlns:v="https://vecta.io/nano"><path d="M255.132 32.975c0-4.277-5.034-8.387-13.482-11.025 1.899-8.617.826-15.014-2.884-17.137-.798-.463-1.724-.724-2.759-.772V4.02h-.345c-3.63 0-8.282 2.446-13.124 6.895-4.831-4.415-9.483-6.843-13.12-6.843l-.344.014v.007c-1.046.045-1.986.305-2.798.772-3.702 2.127-4.759 8.507-2.849 17.1C195.014 24.616 190 28.718 190 32.975c0 4.277 5.034 8.387 13.482 11.025-1.899 8.617-.826 15.014 2.884 17.137.887.518 1.94.779 3.127.779 3.631 0 8.283-2.446 13.125-6.895 4.831 4.415 9.483 6.843 13.12 6.843 1.184 0 2.24-.261 3.142-.779 3.702-2.127 4.759-8.507 2.849-17.1 8.403-2.641 13.403-6.744 13.403-11.011zm-3.603-.003c-.014 1.897-3.011 4.432-7.46 6.312-.922.395-1.968.779-3.272 1.204-.733-2.456-1.68-4.991-2.812-7.54 1.119-2.538 2.051-5.06 2.77-7.502a40.8 40.8 0 0 1 3.324 1.218c4.456 1.897 7.45 4.432 7.45 6.308zm-14.476 24.993c-.327.195-.775.295-1.335.295-2.619 0-6.542-2.154-10.544-5.776 1.817-1.924 3.538-4.003 5.124-6.191 2.797-.302 5.457-.755 7.907-1.348.279 1.266.475 2.391.603 3.437.585 4.778-.117 8.63-1.755 9.584zm-14.501-11.261a70 70 0 0 0 2.918-.055 50.88 50.88 0 0 1-2.88 3.317 52.57 52.57 0 0 1-2.911-3.32 82.76 82.76 0 0 0 2.873.058zm-16.183 1.739c.12-1.036.317-2.178.592-3.475 2.474.587 5.127 1.036 7.89 1.338 1.669 2.271 3.403 4.356 5.162 6.205-4.054 3.698-7.884 5.811-10.54 5.814-.534-.014-.977-.117-1.318-.309-1.645-.94-2.364-4.789-1.786-9.574zm1.71-40.456c.327-.196.774-.295 1.339-.295l.217-.007c2.615.113 6.434 2.247 10.326 5.773a62.2 62.2 0 0 0-5.124 6.192c-2.797.302-5.454.755-7.907 1.348a38.38 38.38 0 0 1-.599-3.423c-.592-4.778.114-8.634 1.748-9.587zm4.033 15.673a70.88 70.88 0 0 0-1.497 2.48 68.65 68.65 0 0 0-1.366 2.487 55.83 55.83 0 0 1-1.421-4.133 65.09 65.09 0 0 1 4.284-.834zm-1.48 16.194l1.49 2.435c-1.496-.237-2.921-.514-4.256-.83a58.07 58.07 0 0 1 1.39-4.089 54.09 54.09 0 0 0 1.376 2.483zm23.375-6.891a73.26 73.26 0 0 1-2.635 5.053c-1.05 1.811-2.051 3.396-3.06 4.847-1.933.165-3.867.247-5.746.247a74.12 74.12 0 0 1-5.723-.233c-1.056-1.52-2.092-3.139-3.069-4.819-.932-1.599-1.82-3.293-2.65-5.042a69.04 69.04 0 0 1 2.636-5.053c1.05-1.811 2.051-3.396 3.059-4.847a67.98 67.98 0 0 1 5.747-.247 73.94 73.94 0 0 1 5.722.233c1.057 1.52 2.093 3.139 3.07 4.819a68.16 68.16 0 0 1 2.649 5.042zm.482-6.864a63.02 63.02 0 0 0-1.49-2.439c1.494.237 2.922.515 4.253.83a57.47 57.47 0 0 1-1.39 4.089 56.8 56.8 0 0 0-1.373-2.48zm-1.48 16.194a67.61 67.61 0 0 0 1.497-2.48 68.66 68.66 0 0 0 1.366-2.497 55.87 55.87 0 0 1 1.422 4.133c-1.391.329-2.829.611-4.285.844zm5.754-24.78c-.121 1.039-.317 2.178-.592 3.475-2.474-.587-5.127-1.036-7.89-1.338-1.666-2.267-3.403-4.353-5.162-6.205 3.875-3.537 7.55-5.626 10.186-5.801h.344c.53 0 .963.096 1.325.295 1.648.94 2.367 4.785 1.789 9.574zm-19.115 1.794c.908-1.142 1.875-2.254 2.88-3.317.974 1.019 1.951 2.13 2.911 3.32a75.07 75.07 0 0 0-2.873-.062c-1.046.003-2.006.021-2.918.058zm-12.512 13.697a63.09 63.09 0 0 0-2.773 7.502c-1.191-.381-2.302-.789-3.31-1.218-4.457-1.894-7.45-4.432-7.45-6.312 0-1.893 2.993-4.428 7.45-6.312a37.8 37.8 0 0 1 3.272-1.204c.736 2.459 1.679 4.994 2.811 7.543zm15.416-6.355c-3.499 0-6.349 2.837-6.349 6.329s2.846 6.329 6.349 6.329 6.349-2.837 6.349-6.329-2.849-6.329-6.349-6.329zm222.853 1.183c0-2.598-2.09-4.691-4.646-4.691h-2.305v9.34h2.305c2.556 0 4.646-2.094 4.646-4.649zm10.482 18.62h-8.459l-6.715-9.319h-2.259v9.299H431V18.494h10.679c6.156 0 11.181 4.186 11.181 9.337 0 3.142-1.926 5.947-4.858 7.664l7.885 10.956zm8.408-16.944c-1.969 0-3.643 2.676-3.643 5.988s1.674 5.992 3.643 5.992c2.014 0 3.686-2.679 3.686-5.992s-1.672-5.988-3.686-5.988zm11.474 5.988c0 6.328-5.146 11.395-11.474 11.395s-11.434-5.067-11.434-11.395 5.108-11.393 11.434-11.393 11.474 5.07 11.474 11.393zm17.492-10.929l-8.587 8.586v-8.614h-7.453v21.893h7.453V37.55l8.965 8.881h9.38l-11.392-11.394 9.436-9.433v12.992c0 4.314 2.594 8.294 9.127 8.294 3.101 0 5.947-1.759 7.33-3.35l3.352 2.89h1.59V24.567h-7.453v11.391 2.765c-.839 1.465-2.008 2.386-3.816 2.386-1.833 0-2.675-1.087-2.675-4.564v-.917-11.06h-15.257zm-177.596-7.58h19.716v1.618h-17.908v12.181h16.84v1.618h-16.84v13.373h18.113v1.618h-19.921v-30.41zm21.482 0h2.095l9.283 13.373 9.488-13.373L370.919 0l-21.203 31.766 10.926 15.631h-2.177l-9.94-14.225-9.981 14.225h-2.136l11.008-15.631-10.269-14.779zm24.275 1.618v-1.618h22.468v1.618h-10.351v28.791h-1.807v-28.79h-10.31zM291 16.987h2.259l31.152 48.144-12.874-17.735-18.648-28.11-.082 28.11H291v-30.41zm92.708 28.303c-.369 0-.646-.296-.646-.677s.277-.677.646-.677.646.295.646.677-.272.677-.646.677zm1.776-1.782h.967c.013.541.396.905.958.905.629 0 .985-.391.985-1.123v-4.637h.985v4.641c0 1.318-.739 2.077-1.961 2.077-1.147 0-1.934-.736-1.934-1.864zm5.183-.059h.975c.084.623.673 1.018 1.521 1.018.792 0 1.372-.423 1.372-1.005 0-.5-.369-.8-1.209-1.005l-.818-.205c-1.147-.277-1.67-.85-1.67-1.814 0-1.168.923-1.946 2.308-1.946 1.288 0 2.228.777 2.285 1.882h-.958c-.092-.605-.602-.982-1.34-.982-.779 0-1.297.386-1.297.977 0 .468.334.736 1.16.936l.699.177c1.301.314 1.838.859 1.838 1.846 0 1.255-.941 2.041-2.444 2.041-1.407 0-2.352-.75-2.422-1.923z"/><path fill-rule="evenodd" d="M52.622 6.536H6.34c-2.101 0-3.804 1.703-3.804 3.804v46.282c0 2.101 1.703 3.804 3.804 3.804h46.282c2.101 0 3.804-1.703 3.804-3.804V10.34c0-2.101-1.703-3.804-3.804-3.804zM6.34 4A6.34 6.34 0 0 0 0 10.34v46.282a6.34 6.34 0 0 0 6.34 6.34h46.282a6.34 6.34 0 0 0 6.34-6.34V10.34A6.34 6.34 0 0 0 52.622 4H6.34z"/><path d="M47.121 35.636c-.139-1.236-.714-2.194-1.724-2.873-1.01-.688-2.281-1.032-3.813-1.032-1.097 0-2.046.174-2.847.522-.801.34-1.423.81-1.867 1.41a3.33 3.33 0 0 0-.653 2.024c0 .636.148 1.184.444 1.645.305.461.701.849 1.188 1.162a8.88 8.88 0 0 0 1.593.77l1.632.496 2.612.679c.853.209 1.728.492 2.625.849a10.52 10.52 0 0 1 2.494 1.41c.766.583 1.384 1.306 1.854 2.168.479.862.718 1.893.718 3.095 0 1.515-.392 2.86-1.175 4.035-.775 1.175-1.902 2.102-3.382 2.781-1.471.679-3.251 1.019-5.341 1.019-2.002 0-3.735-.318-5.197-.953s-2.607-1.537-3.434-2.703c-.827-1.175-1.284-2.568-1.371-4.179h4.048c.078.966.392 1.772.94 2.416.557.636 1.267 1.11 2.129 1.423.871.305 1.824.457 2.86.457 1.14 0 2.155-.178 3.043-.535.897-.366 1.602-.871 2.115-1.515.514-.653.77-1.415.77-2.285 0-.792-.226-1.441-.679-1.946-.444-.505-1.049-.923-1.815-1.254-.757-.331-1.615-.622-2.573-.875l-3.16-.862c-2.142-.583-3.839-1.441-5.093-2.572-1.245-1.132-1.867-2.629-1.867-4.492 0-1.541.418-2.886 1.254-4.035s1.968-2.041 3.395-2.677c1.428-.644 3.038-.966 4.832-.966 1.811 0 3.408.318 4.792.953 1.393.636 2.49 1.51 3.291 2.625.801 1.106 1.219 2.377 1.254 3.813h-3.891zm-23.01-7.025h4.022v18.961c0 1.715-.34 3.182-1.019 4.401a6.79 6.79 0 0 1-2.834 2.794c-1.219.636-2.646.953-4.283.953-1.506 0-2.86-.274-4.061-.823-1.193-.548-2.137-1.345-2.834-2.39-.688-1.053-1.032-2.333-1.032-3.839h4.009c0 .74.17 1.38.509 1.92a3.59 3.59 0 0 0 1.423 1.267c.609.296 1.306.444 2.089.444.853 0 1.576-.178 2.168-.535.601-.366 1.058-.901 1.371-1.606s.47-1.567.47-2.586V28.611z"/><path fill-rule="evenodd" d="M147.622 6.536H101.34c-2.101 0-3.804 1.703-3.804 3.804v46.282c0 2.101 1.703 3.804 3.804 3.804h46.282c2.101 0 3.804-1.703 3.804-3.804V10.34c0-2.101-1.703-3.804-3.804-3.804zM101.34 4A6.34 6.34 0 0 0 95 10.34v46.282a6.34 6.34 0 0 0 6.34 6.34h46.282a6.34 6.34 0 0 0 6.34-6.34V10.34a6.34 6.34 0 0 0-6.34-6.34H101.34z"/><path d="M141.98 35.636c-.14-1.236-.714-2.194-1.724-2.873-1.01-.688-2.281-1.032-3.813-1.032-1.097 0-2.046.174-2.847.522-.801.34-1.423.81-1.867 1.41a3.33 3.33 0 0 0-.653 2.024c0 .636.148 1.184.444 1.645.305.461.701.849 1.188 1.162a9.03 9.03 0 0 0 1.593.77l1.633.496 2.611.679a19.9 19.9 0 0 1 2.625.849 10.51 10.51 0 0 1 2.494 1.41 6.77 6.77 0 0 1 1.855 2.168c.478.862.718 1.893.718 3.095 0 1.515-.392 2.86-1.175 4.035-.775 1.175-1.903 2.102-3.383 2.781-1.471.679-3.251 1.019-5.34 1.019-2.003 0-3.735-.318-5.198-.953s-2.607-1.537-3.434-2.703c-.827-1.175-1.284-2.568-1.371-4.179h4.048c.078.966.392 1.772.94 2.416.557.636 1.267 1.11 2.129 1.423.87.305 1.823.457 2.859.457 1.141 0 2.155-.178 3.043-.535.897-.366 1.602-.871 2.115-1.515.514-.653.771-1.415.771-2.285 0-.792-.226-1.441-.679-1.946-.444-.505-1.049-.923-1.815-1.254-.758-.331-1.615-.622-2.573-.875l-3.16-.862c-2.141-.583-3.839-1.441-5.093-2.572-1.244-1.132-1.867-2.629-1.867-4.492 0-1.541.418-2.886 1.254-4.035s1.967-2.041 3.395-2.677c1.428-.644 3.038-.966 4.831-.966 1.811 0 3.409.318 4.793.953 1.393.636 2.49 1.51 3.291 2.625.8 1.106 1.218 2.377 1.253 3.813h-3.891zm-38.387-3.551v-3.473h20.698v3.473h-8.344v23.27h-4.022v-23.27h-8.332z"/></svg>