<svg xmlns="http://www.w3.org/2000/svg" width="22" height="18" viewBox="0 0 22 18" fill="currentColor" fill-rule="evenodd" xmlns:v="https://vecta.io/nano"><path d="M3 2a1 1 0 0 0-1 1v12a1 1 0 0 0 1 1h16a1 1 0 0 0 1-1V3a1 1 0 0 0-1-1H3zM0 3a3 3 0 0 1 3-3h16a3 3 0 0 1 3 3v12a3 3 0 0 1-3 3H3a3 3 0 0 1-3-3V3z"/><path d="M.156 3.464a1 1 0 0 1 1.38-.308l8.967 5.698a.94.94 0 0 0 .994 0l.002-.001 8.965-5.697a1 1 0 1 1 1.073 1.688l-8.975 5.703a2.94 2.94 0 0 1-3.122 0l-.005-.003-8.97-5.7a1 1 0 0 1-.308-1.38z"/></svg>